<?xml version="1.0" encoding="utf-8"?><svg xmlns="http://www.w3.org/2000/svg" xmlns:xlink="http://www.w3.org/1999/xlink" width="1853" height="803" preserveAspectRatio="xMidYMid" viewBox="0 0 1853 803" style="z-index:1;display:block;background-color:rgb(241, 242, 243);animation-play-state:paused" ><g transform="" style="animation-play-state:paused" ><circle cx="0" cy="0" r="2019.509346351237" fill="#fefefe" fill-opacity="0.26" transform="matrix(0.9860000014305115,0,0,0.9860000014305115,0,0)" style="animation-play-state:paused" ></circle>
<circle cx="0" cy="0" r="1893.2900122042845" fill="#efefef" fill-opacity="0.26" transform="matrix(0.986935019493103,0,0,0.986935019493103,0,0)" style="animation-play-state:paused" ></circle>
<circle cx="0" cy="0" r="1767.0706780573323" fill="#dfdfdf" fill-opacity="0.26" transform="matrix(0.9897777438163757,0,0,0.9897777438163757,0,0)" style="animation-play-state:paused" ></circle>
<circle cx="0" cy="0" r="1640.85134391038" fill="#d0d0d0" fill-opacity="0.26" transform="matrix(0.9943390488624573,0,0,0.9943390488624573,0,0)" style="animation-play-state:paused" ></circle>
<circle cx="0" cy="0" r="1514.6320097634277" fill="#c2c2c2" fill-opacity="0.26" transform="matrix(0.9999664425849915,0,0,0.9999664425849915,0,0)" style="animation-play-state:paused" ></circle>
<circle cx="0" cy="0" r="1388.4126756164753" fill="#b3b3b3" fill-opacity="0.26" transform="matrix(1.0056408643722534,0,0,1.0056408643722534,0,0)" style="animation-play-state:paused" ></circle>
<circle cx="0" cy="0" r="1262.1933414695231" fill="#a4a4a4" fill-opacity="0.26" transform="matrix(1.0102077722549438,0,0,1.0102077722549438,0,0)" style="animation-play-state:paused" ></circle>
<circle cx="0" cy="0" r="1135.9740073225707" fill="#969696" fill-opacity="0.26" transform="matrix(1.013057827949524,0,0,1.013057827949524,0,0)" style="animation-play-state:paused" ></circle>
<circle cx="0" cy="0" r="1009.7546731756184" fill="#888888" fill-opacity="0.26" transform="matrix(1.0140000581741333,0,0,1.0140000581741333,0,0)" style="animation-play-state:paused" ></circle>
<circle cx="0" cy="0" r="883.5353390286662" fill="#7b7b7b" fill-opacity="0.26" transform="matrix(1.013057827949524,0,0,1.013057827949524,0,0)" style="animation-play-state:paused" ></circle>
<circle cx="0" cy="0" r="757.3160048817139" fill="#6d6d6d" fill-opacity="0.26" transform="matrix(1.0102077722549438,0,0,1.0102077722549438,0,0)" style="animation-play-state:paused" ></circle>
<circle cx="0" cy="0" r="631.0966707347616" fill="#606060" fill-opacity="0.26" transform="matrix(1.0056408643722534,0,0,1.0056408643722534,0,0)" style="animation-play-state:paused" ></circle>
<circle cx="0" cy="0" r="504.8773365878092" fill="#535353" fill-opacity="0.26" transform="matrix(1.0000112056732178,0,0,1.0000112056732178,0,0)" style="animation-play-state:paused" ></circle>
<circle cx="0" cy="0" r="378.65800244085693" fill="#474747" fill-opacity="0.26" transform="matrix(0.9943794012069702,0,0,0.9943794012069702,0,0)" style="animation-play-state:paused" ></circle>
<circle cx="0" cy="0" r="252.4386682939046" fill="#3b3b3b" fill-opacity="0.26" transform="matrix(0.9897777438163757,0,0,0.9897777438163757,0,0)" style="animation-play-state:paused" ></circle>
<circle cx="0" cy="0" r="126.2193341469523" fill="#2f2f2f" fill-opacity="0.26" transform="matrix(0.986935019493103,0,0,0.986935019493103,0,0)" style="animation-play-state:paused" ></circle>
<circle cx="0" cy="0" r="0" fill="#242424" fill-opacity="0.26" transform="matrix(0.9860000014305115,0,0,0.9860000014305115,0,0)" style="animation-play-state:paused" ></circle></g></svg>