<?xml version="1.0" encoding="utf-8"?><svg xmlns="http://www.w3.org/2000/svg" xmlns:xlink="http://www.w3.org/1999/xlink" width="1440" height="804" preserveAspectRatio="xMidYMid" viewBox="0 0 1440 804" style="z-index:1;display:block;background-color:rgb(241, 242, 243);animation-play-state:paused" ><g transform="" style="animation-play-state:paused" ><linearGradient id="lg-0.13399073057572497" x1="0" x2="1" y1="0" y2="0" style="animation-play-state:paused" ><stop stop-color="#0a0a0a" offset="0" style="animation-play-state:paused" ></stop>

  
<stop stop-color="#28292f" offset="1" style="animation-play-state:paused" ></stop></linearGradient>
<path d="M1251.4000244140625 402C1251.4000244140625 565 996.5999755859375 724.4000244140625 841.5999755859375 775C686.5999755859375 825.5999755859375 353.79998779296875 870.7999877929688 257.6000061035156 738.4000244140625C161.39999389648438 606 223 243.39999389648438 319 111C415 -21.399999618530273 689 -32.20000076293945 844.7999877929688 18.399999618530273C1000.5999755859375 69 1251.4000244140625 239 1251.4000244140625 402" fill="url(#lg-0.13399073057572497)" opacity="0.4" style="opacity:0.4;animation-play-state:paused" ></path>
<path d="M1300.4000244140625 402C1300.4000244140625 579.2000122070312 1048.199951171875 840 880 894.4000244140625C711.7999877929688 948.7999877929688 360 882 256.20001220703125 739C152.39999389648438 596 115.80000305175781 181.60000610351562 219.60000610351562 38.400001525878906C323.3999938964844 -104.80000305175781 693 -88.4000015258789 861.2000122070312 -34C1029.4000244140625 20.399999618530273 1300.4000244140625 224.8000030517578 1300.4000244140625 402" fill="url(#lg-0.13399073057572497)" opacity="0.4" style="opacity:0.4;animation-play-state:paused" ></path>
<path d="M1348.4000244140625 402C1348.4000244140625 584 1045.800048828125 811.4000244140625 872 868.2000122070312C698.2000122070312 925 362 887.4000244140625 255 739.5999755859375C148 591.7999877929688 106 182 213 34.20000076293945C320 -113.5999984741211 695.5999755859375 -113.19999694824219 869.4000244140625 -57.20000076293945C1043.199951171875 -1.2000000476837158 1348.4000244140625 220 1348.4000244140625 402" fill="url(#lg-0.13399073057572497)" opacity="0.4" style="opacity:0.4;animation-play-state:paused" ></path>
<path d="M1301.4000244140625 402C1301.4000244140625 562.2000122070312 988.2000122070312 706.2000122070312 835.4000244140625 756C682.5999755859375 805.7999877929688 400 832 306.20001220703125 702.4000244140625C212.39999389648438 572.7999877929688 225 240.8000030517578 319 111.19999694824219C413 -18.399999618530273 707.7999877929688 -79.80000305175781 860.5999755859375 -29.799999237060547C1013.4000244140625 20.200000762939453 1301.4000244140625 241.8000030517578 1301.4000244140625 402" fill="url(#lg-0.13399073057572497)" opacity="0.4" style="opacity:0.4;animation-play-state:paused" ></path>
<path d="M1411.4000244140625 402C1411.4000244140625 582.7999877929688 1041.4000244140625 806.2000122070312 869.4000244140625 862C697.4000244140625 917.7999877929688 348 895.7999877929688 241.60000610351562 749.2000122070312C135.1999969482422 602.5999755859375 123 192 229.39999389648438 45.400001525878906C335.79998779296875 -101.19999694824219 712.2000122070312 -159.39999389648438 884.2000122070312 -103.5999984741211C1056.199951171875 -47.79999923706055 1411.4000244140625 221.1999969482422 1411.4000244140625 402" fill="url(#lg-0.13399073057572497)" opacity="0.4" style="opacity:0.4;animation-play-state:paused" ></path></g></svg>